<?xml version="1.0" encoding="UTF-8" standalone="no" ?>
<!DOCTYPE svg PUBLIC "-//W3C//DTD SVG 1.1//EN" "http://www.w3.org/Graphics/SVG/1.1/DTD/svg11.dtd">
<svg xmlns="http://www.w3.org/2000/svg" xmlns:xlink="http://www.w3.org/1999/xlink" version="1.1" width="540" height="480" viewBox="0 0 540 480" xml:space="preserve">
<desc>Created with Fabric.js 3.6.6</desc>
<defs>
</defs>
<g transform="matrix(3.17 1.41 -0.53 1.19 298 233)"  >
<polygon style="stroke: rgb(195,0,255); stroke-width: 21; stroke-dasharray: ; stroke-linecap: butt; stroke-dashoffset: 0; stroke-linejoin: miter; stroke-miterlimit: 4; fill: rgb(152,0,255); fill-opacity: 0; fill-rule: nonzero; opacity: 1;"  points="-25,-50 -50,50 25,50 50,-50 " />
</g>
<g transform="matrix(1.6 0.21 -0.26 1.91 243.4 220.67)"  >
<path style="stroke: rgb(0,0,0); stroke-width: 36; stroke-dasharray: none; stroke-linecap: butt; stroke-dashoffset: 0; stroke-linejoin: miter; stroke-miterlimit: 4; fill: none; fill-rule: nonzero; opacity: 1;" vector-effect="non-scaling-stroke"  transform=" translate(-57.95, -51.83)" d="m 0 0 l 57.952755 0 l 0 0 c 32.006428 -1.4055393e-14 57.952755 23.203636 57.952755 51.82677 c 0 28.623135 -25.946327 51.82677 -57.952755 51.82677 l -57.952755 0 z" stroke-linecap="round" />
</g>
<g transform="matrix(0.96 0 0 0.96 305 141)"  >
<path style="stroke: rgb(255,215,0); stroke-width: 8; stroke-dasharray: none; stroke-linecap: butt; stroke-dashoffset: 0; stroke-linejoin: miter; stroke-miterlimit: 10; fill: rgb(116,0,255); fill-opacity: 0; fill-rule: evenodd; opacity: 1;" vector-effect="non-scaling-stroke"  transform=" translate(-51.83, -51.83)" d="m 0 51.82677 l 42.665005 -9.161766 l 9.161766 -42.665005 l 9.161766 42.665005 l 42.665005 9.161766 l -42.665005 9.161766 l -9.161766 42.665005 l -9.161766 -42.665005 z" stroke-linecap="round" />
</g>
</svg>